#!OML:ASF F:\VICON\USERDATA\INSTALL\rory3\rory3.ASF
:FULLY-SPECIFIED
:DEGREES
2546
root -0.115349 18.7048 -0.676214 0.16421 -3.80641 0.428055
lowerback 3.37208 0.142538 -1.1395
upperback -1.09805 0.135667 -0.08639
thorax -3.02171 0.088253 0.542121
lowerneck -14.3084 -0.612886 -7.04917
upperneck 14.064 -0.349069 6.12681
head 6.65701 -0.0194818 3.10451
rclavicle 3.52532e-016 3.77691e-015
rhumerus 32.9514 -25.7235 -25.0302
rradius 52.672
rwrist 13.8494
rhand -36.5267 6.96839
rfingers 7.12502
rthumb -9.61799 -22.7921
lclavicle 3.52532e-016 3.77691e-015
lhumerus 26.8291 20.9808 22.6351
lradius 59.9468
lwrist 1.80395
lhand -34.0932 16.1969
lfingers 7.12502
lthumb -7.26956 46.052
rfemur -10.0053 23.4745 16.7239
rtibia 25.6506
rfoot -16.5417 -10.0791
rtoes -0.0614896
lfemur -2.44109 -10.1007 -17.4021
ltibia 21.6583
lfoot -21.32 24.2046
ltoes -1.52144
2547
root -0.113353 18.7055 -0.663972 0.282021 -3.8174 0.322257
lowerback 3.44516 0.163071 -1.02583
upperback -1.08559 0.168439 -0.051647
thorax -3.05034 0.102864 0.511995
lowerneck -14.3818 -0.664897 -7.07487
upperneck 13.9628 -0.412867 6.16578
head 6.64182 -0.0466896 3.11427
rclavicle 1.2305e-014 -1.14301e-015
rhumerus 31.3214 -26.9452 -24.0058
rradius 53.079
rwrist 13.4158
rhand -36.3129 7.08862
rfingers 7.12502
rthumb -9.41173 -22.6812
lclavicle 1.2305e-014 -1.14301e-015
lhumerus 24.9895 22.1252 21.7997
lradius 60.2196
lwrist 2.01067
lhand -34.2505 16.4997
lfingers 7.12502
lthumb -7.42136 46.3496
rfemur -10.0708 23.5741 16.808
rtibia 25.6102
rfoot -16.5739 -10.1682
rtoes 0.0467973
lfemur -2.5212 -10.099 -17.2763
ltibia 21.6698
lfoot -21.3816 24.1931
ltoes -1.4911
2548
root -0.110112 18.7065 -0.649971 0.350455 -3.87065 0.320534
lowerback 3.59856 0.191174 -1.02557
upperback -1.13882 0.203791 -0.0497611
thorax -3.19228 0.121347 0.511112
lowerneck -14.22 -0.660808 -7.10728
upperneck 13.7981 -0.422617 6.26676
head 6.56207 -0.0458637 3.14814
rclavicle -2.35164e-015 2.36057e-015
rhumerus 29.621 -28.0285 -23.0093
rradius 53.454
rwrist 12.8782
rhand -36.4578 7.19204
rfingers 7.12502
rthumb -9.55153 -22.5715
lclavicle -2.35164e-015 2.36057e-015
lhumerus 22.9185 23.0132 20.6964
lradius 60.4767
lwrist 2.36536
lhand -34.272 17.1403
lfingers 7.12502
lthumb -7.44208 46.9894
rfemur -10.0889 23.6508 16.7811
rtibia 25.559
rfoot -16.6113 -10.194
rtoes 0.149034
lfemur -2.55881 -10.1068 -17.296
ltibia 21.7033
lfoot -21.4445 24.271
ltoes -1.6286
2549
root -0.105517 18.7054 -0.632152 0.345721 -3.96403 0.353741
lowerback 3.74738 0.219011 -1.06777
upperback -1.15154 0.236787 -0.0535907
thorax -3.29006 0.139096 0.528229
lowerneck -14.0074 -0.634555 -7.19309
upperneck 13.5818 -0.401711 6.42531
head 6.45514 -0.0288408 3.21135
rclavicle 9.3192e-015 1.56543e-015
rhumerus 28.0178 -29.2262 -22.1792
rradius 53.7303
rwrist 12.6201
rhand -36.5669 7.12009
rfingers 7.12502
rthumb -9.65676 -22.6386
lclavicle 9.3192e-015 1.56543e-015
lhumerus 20.6492 23.7537 19.325
lradius 60.6557
lwrist 2.90545
lhand -33.631 17.142
lfingers 7.12502
lthumb -6.8234 47.012
rfemur -10.0078 23.6656 16.7419
rtibia 25.493
rfoot -16.6006 -10.1296
rtoes 0.0740664
lfemur -2.49763 -10.101 -17.3882
ltibia 21.7615
lfoot -21.565 24.3481
ltoes -1.77339
2550
root -0.104169 18.706 -0.619714 0.439309 -4.01249 0.218401
lowerback 3.84057 0.225116 -1.00077
upperback -1.11709 0.249614 0.0158221
thorax -3.30725 0.144797 0.560986
lowerneck -13.9711 -0.656185 -7.18253
upperneck 13.3621 -0.422673 6.38986
head 6.38051 -0.0407968 3.1925
rclavicle 2.12378e-015 2.26118e-015
rhumerus 26.536 -30.6637 -21.4757
rradius 53.9248
rwrist 12.5763
rhand -36.3773 6.93372
rfingers 7.12502
rthumb -9.47389 -22.8333
lclavicle 2.12378e-015 2.26118e-015
lhumerus 18.427 24.6456 18.0815
lradius 60.6943
lwrist 3.53861
lhand -32.2532 16.5936
lfingers 7.12502
lthumb -5.49318 46.5024
rfemur -10.0488 23.7448 16.8696
rtibia 25.4335
rfoot -16.567 -10.2192
rtoes -0.0988387
lfemur -2.56161 -10.1223 -17.244
ltibia 21.8014
lfoot -21.624 24.4257
ltoes -1.90997
2551
root -0.103445 18.7066 -0.608014 0.555199 -4.04305 0.0195101
lowerback 3.91695 0.239119 -0.864709
upperback -1.08311 0.276622 0.0771741
thorax -3.31529 0.156034 0.545795
lowerneck -13.9182 -0.687576 -7.09104
upperneck 13.1274 -0.471137 6.33371
head 6.30017 -0.0638257 3.15082
rclavicle 1.73727e-014 3.00662e-015
rhumerus 24.9272 -32.0882 -20.7257
rradius 54.0808
rwrist 12.4043
rhand -36.4691 6.80695
rfingers 7.12502
rthumb -9.56245 -22.9561
lclavicle 1.73727e-014 3.00662e-015
lhumerus 16.2048 25.4771 16.8604
lradius 60.7151
lwrist 4.23133
lhand -31.3792 16.4288
lfingers 7.12502
lthumb -4.64934 46.3578
rfemur -10.1 23.8449 17.0653
rtibia 25.3786
rfoot -16.5533 -10.3066
rtoes -0.199826
lfemur -2.648 -10.101 -17.0075
ltibia 21.8301
lfoot -21.7055 24.4288
ltoes -1.90617
